M48
; DRILL file {KiCad 8.0.9-unknown-202502181922~c4009544a9~ubuntu24.04.1} date 2025-05-25T20:50:31-0500
; FORMAT={-:-/ absolute / inch / decimal}
; #@! TF.CreationDate,2025-05-25T20:50:31-05:00
; #@! TF.GenerationSoftware,Kicad,Pcbnew,8.0.9-unknown-202502181922~c4009544a9~ubuntu24.04.1
; #@! TF.FileFunction,Plated,1,2,PTH
FMAT,2
INCH
; #@! TA.AperFunction,Plated,PTH,ComponentDrill
T1C0.0320
; #@! TA.AperFunction,Plated,PTH,ComponentDrill
T2C0.0394
%
G90
G05
T1
X6.4272Y-3.0327
X6.4272Y-3.2327
X6.7272Y-3.0327
X6.7272Y-3.2327
T2
X5.8902Y-2.4811
X5.8902Y-2.5811
X5.8902Y-2.6811
X5.8902Y-2.7811
X6.2197Y-3.5311
X6.2197Y-4.4311
X6.2439Y-3.0813
X6.2439Y-3.1813
X6.2439Y-3.2813
X6.3197Y-3.5311
X6.3197Y-4.4311
X6.4197Y-3.5311
X6.4197Y-4.4311
X6.5197Y-3.5311
X6.5197Y-4.4311
X6.6197Y-3.5311
X6.6197Y-4.4311
X6.7197Y-3.5311
X6.7197Y-4.4311
X6.8197Y-3.5311
X6.8197Y-4.4311
X6.9197Y-3.5311
X6.9197Y-4.4311
M30
